<svg xmlns="http://www.w3.org/2000/svg" version="1.1" width="135" height="123" style="shape-rendering: geometricprecision; text-rendering: geometricprecision; fill-rule: evenodd; clip-rule: evenodd;"><rect id="backgroundrect" width="100%" height="100%" x="0" y="0" fill="none" stroke="none" style="" class=""/>
  
<g class="currentLayer" style=""><title>Layer 1</title><g id="svg_1" class="">
    <g id="svg_4">
      <path style="opacity:1" fill="#0ca0e3" d="M64.24405228162087,1.5555454209797115 C75.7837035612259,11.374037953023826 86.49397620839329,22.17323759337578 96.37390632750163,33.952924698786234 C79.9341310073593,38.71577873912247 63.5126697040231,43.47467920097056 47.10813012381777,48.22973590595521 C46.61825694913157,48.6843974320912 46.26129427068185,49.233505555443855 46.03713498895508,49.87706027601317 C50.41632699589515,56.677654562111094 54.164809967914564,63.63298751736983 57.28258390501335,70.74316896341398 C40.5902679320704,82.13287947961938 23.27581088528572,92.1998983482929 5.339319864172784,100.94411574780989 C14.231471170397262,90.7267510749624 23.513357606198255,80.84280485461464 33.185193370602775,71.29227708676663 C29.77578745828089,72.26277078398012 26.205732275729584,73.17802420398432 22.475242021975856,74.0378177035299 C22.297242630561673,67.43841663382837 22.47577751954329,60.84911915359655 23.0107395894072,54.26992526283439 C23.281915557554445,50.65723309767261 24.352910692417133,47.36258435755669 26.22372499399528,44.38597904248664 C30.100834481711708,38.577952600160955 34.38481502116248,33.086871366634426 39.07566661234758,27.912735341907055 C47.62338588320021,19.330395017154434 56.012812073120145,10.544665043511982 64.24405228162087,1.5555454209797115 z" id="svg_5"/>
    </g>
    <g id="svg_6">
      <path style="opacity:1" fill="#242422" d="M41.75315444950431,14.734140381443382 C42.87984133137987,14.56995705256094 43.95083646624256,14.753029700886712 44.96613985409239,15.283248504796035 C35.3261126451933,23.694486738311973 27.29364913372311,33.395360310333956 20.868749319681818,44.38597904248664 C19.797754184819127,47.680627782602556 18.726759049956435,50.975276522718474 17.655763915093743,54.26992526283439 C17.12048054668937,63.78080742417636 16.942052757221244,73.29860834787254 17.120266347662398,82.82354767717234 C16.049271212799706,82.82354767717234 14.978276077937013,82.82354767717234 13.907280943074321,82.82354767717234 C6.857776766381108,52.821817319928776 16.139770301695602,30.12531161414423 41.75315444950431,14.734140381443382 z" id="svg_7"/>
    </g>
    <g id="svg_8">
      <path style="opacity:1" fill="#272725" d="M85.6639549788747,14.734140381443382 C85.72821468696645,14.137699137857732 86.08485606687572,13.77166366283085 86.7349501137374,13.635924134738076 C97.01007743761005,17.42872376435952 104.68589956917094,24.018021244591356 109.76134551328528,33.40381657543358 C108.44509249253903,36.090932087872126 106.83859979024498,36.274004736197895 104.94186740640316,33.952924698786234 C98.6851138285353,27.35407273720806 92.25914301935913,20.947738083677326 85.6639549788747,14.734140381443382 z" id="svg_9"/>
    </g>
    <g id="svg_10">
      <path style="opacity:1" fill="#97c226" d="M129.57475550824506,26.814519095201746 C130.36622091290857,26.67065276688335 131.08057466786204,26.853725415209126 131.71674577797046,27.3636272185544 C121.00679442934353,38.34578968560746 110.29684308071663,49.327952152660515 99.5868917320897,60.31011461971357 C102.33185226274279,60.47945956495553 105.0093400998995,59.93035144160288 107.61935524355988,58.662790249655615 C108.15485281099123,59.028825724682505 108.69035037842258,59.39497102133403 109.22584794585393,59.76100649636092 C111.0069128551306,83.03802931015389 101.36795664136636,99.32820036240769 80.30897930456123,108.63162947474703 C74.04783464664044,110.95765148526885 67.6218638374643,111.69016172182131 61.03106687703277,110.82806196815764 C55.1223867179953,109.62771161050873 49.4104483652321,107.79808334349768 43.8951447192297,105.33698073463111 C40.52665082105956,103.16470899864802 37.67062809492122,100.41894873863542 35.32718364032816,97.10035888434132 C52.14330665086124,90.95792559489387 69.2792288086643,85.83287983639421 86.7349501137374,81.72533143046704 C84.21061458086601,74.72101803060526 80.81984398389073,68.13172055037343 76.56049633254182,61.95743898977153 C75.84646387612884,60.859222743066226 75.84646387612884,59.76100649636092 76.56049633254182,58.662790249655615 C94.24583899452944,47.864139717427015 111.91725871976388,37.2481225470255 129.57475550824506,26.814519095201746 z" id="svg_11"/>
    </g>
    <g id="svg_12">
      <path style="opacity:1" fill="#262624" d="M115.65181875503009,49.87706027601317 C116.71852990935332,49.78283332204584 117.61066885669393,50.148978618697406 118.32930659218681,50.975276522718474 C124.18764997988575,77.61690445154248 116.15518646841554,98.6659759656444 94.23191605777623,114.12271070827356 C67.82588841065564,127.13657323173143 44.44242323314453,122.92711035810999 24.081734724269896,101.49322387116254 C21.884159807045133,99.27493687444249 22.062587596513257,97.44453985605875 24.617232291701242,96.00214263763601 C30.532017123007424,101.1531062995579 36.601025253733845,106.09474994485777 42.824149584367,110.82806196815764 C66.72501251153028,121.15458933592765 87.60888214378534,116.57832223590661 105.47736497383451,97.10035888434132 C109.49788071010903,91.05127397586382 112.35315373965295,84.46197649563199 114.04532605273604,77.33246644364581 C114.25631209430398,68.09514994935816 114.79180966173533,58.94327467906416 115.65181875503009,49.87706027601317 z" id="svg_13"/>
    </g>
  </g></g></svg>